<svg width="800" height="400" viewBox="0 0 800 400" xmlns="http://www.w3.org/2000/svg"><mask id="satori_om-id"><rect x="0" y="0" width="800" height="400" fill="#fff"/></mask><rect x="0" y="0" width="800" height="400" fill="#fff"/><mask id="satori_om-id-0"><rect x="48" y="69" width="133" height="77" fill="#fff"/></mask><path fill="black" d="M77.6 103.9L77.6 103.9L72.8 105.3Q72.4 104.1 71.5 102.9Q70.6 101.8 69.1 101.0Q67.6 100.3 65.3 100.3L65.3 100.3Q62.1 100.3 59.9 101.7Q57.8 103.2 57.8 105.5L57.8 105.5Q57.8 107.5 59.3 108.6Q60.7 109.8 63.8 110.5L63.8 110.5L69 111.8Q73.7 113.0 76.0 115.3Q78.3 117.6 78.3 121.3L78.3 121.3Q78.3 124.3 76.6 126.6Q74.8 129 71.8 130.4Q68.7 131.7 64.6 131.7L64.6 131.7Q59.3 131.7 55.8 129.4Q52.3 127.1 51.4 122.6L51.4 122.6L56.5 121.4Q57.2 124.2 59.2 125.6Q61.3 127 64.5 127L64.5 127Q68.3 127 70.5 125.4Q72.7 123.8 72.7 121.5L72.7 121.5Q72.7 119.7 71.5 118.5Q70.2 117.3 67.5 116.6L67.5 116.6L61.7 115.3Q56.9 114.1 54.7 111.7Q52.5 109.3 52.5 105.7L52.5 105.7Q52.5 102.8 54.1 100.5Q55.8 98.2 58.7 96.9Q61.6 95.6 65.3 95.6L65.3 95.6Q70.5 95.6 73.4 97.9Q76.4 100.2 77.6 103.9ZM83.5 96.1L101.5 96.1L101.5 100.6L83.5 100.6L83.5 96.1ZM88.7 122.5L88.7 87.7L94.1 87.7L94.1 121Q94.1 123.3 94.8 124.4Q95.4 125.5 96.5 125.9Q97.5 126.3 98.7 126.3L98.7 126.3Q99.6 126.3 100.2 126.2Q100.8 126.1 101.1 126L101.1 126L102.2 130.8Q101.6 131.0 100.7 131.2Q99.7 131.5 98.2 131.5L98.2 131.5Q95.9 131.5 93.7 130.5Q91.6 129.5 90.1 127.5Q88.7 125.5 88.7 122.5L88.7 122.5ZM123.9 131.7L123.9 131.7Q118.9 131.7 115.2 129.5Q111.6 127.3 109.6 123.2Q107.6 119.2 107.6 113.8L107.6 113.8Q107.6 108.5 109.6 104.4Q111.6 100.3 115.1 97.9Q118.6 95.6 123.4 95.6L123.4 95.6Q126.1 95.6 128.8 96.5Q131.4 97.5 133.6 99.5Q135.8 101.5 137.1 104.9Q138.4 108.2 138.4 113.1L138.4 113.1L138.4 115.4L111.5 115.4L111.5 110.7L132.9 110.7Q132.9 107.8 131.7 105.5Q130.6 103.1 128.4 101.8Q126.3 100.5 123.4 100.5L123.4 100.5Q120.2 100.5 117.8 102.0Q115.5 103.6 114.3 106.1Q113 108.7 113 111.5L113 111.5L113 114.6Q113 118.6 114.4 121.3Q115.8 124.1 118.2 125.5Q120.7 126.9 123.9 126.9L123.9 126.9Q126.0 126.9 127.7 126.3Q129.5 125.7 130.7 124.5Q132.0 123.3 132.6 121.5L132.6 121.5L137.8 122.9Q137 125.5 135.1 127.5Q133.1 129.5 130.3 130.6Q127.5 131.7 123.9 131.7ZM160.6 144.8L160.6 144.8Q156.8 144.8 154.0 143.8Q151.2 142.8 149.3 141.2Q147.5 139.6 146.4 137.8L146.4 137.8L150.6 134.8Q151.4 135.8 152.5 137.0Q153.6 138.3 155.5 139.2Q157.5 140.1 160.6 140.1L160.6 140.1Q164.9 140.1 167.6 138.0Q170.4 136 170.4 131.6L170.4 131.6L170.4 124.5L169.9 124.5Q169.3 125.5 168.2 126.9Q167.2 128.3 165.1 129.4Q163.1 130.5 159.7 130.5L159.7 130.5Q155.5 130.5 152.1 128.5Q148.8 126.5 146.9 122.6Q144.9 118.8 144.9 113.4L144.9 113.4Q144.9 108 146.8 104.0Q148.7 100.0 152.0 97.8Q155.4 95.6 159.8 95.6L159.8 95.6Q163.2 95.6 165.2 96.8Q167.3 97.9 168.3 99.3Q169.4 100.7 170 101.6L170 101.6L170.5 101.6L170.5 96.1L175.7 96.1L175.7 132Q175.7 136.5 173.7 139.3Q171.7 142.2 168.2 143.5Q164.8 144.8 160.6 144.8ZM160.5 125.6L160.5 125.6Q163.7 125.6 165.9 124.2Q168.1 122.7 169.3 119.9Q170.5 117.1 170.5 113.3L170.5 113.3Q170.5 109.5 169.3 106.6Q168.2 103.7 166.0 102.1Q163.7 100.5 160.5 100.5L160.5 100.5Q157.0 100.5 154.8 102.2Q152.5 103.9 151.4 106.8Q150.3 109.7 150.3 113.3L150.3 113.3Q150.3 116.9 151.4 119.7Q152.6 122.5 154.8 124.1Q157.1 125.6 160.5 125.6Z "/><mask id="satori_om-id-1"><rect x="48" y="154" width="140" height="29" fill="#fff"/></mask><mask id="satori_om-id-1-0"><rect x="48" y="154" width="57" height="29" fill="#fff"/></mask><path fill="#666" d="M51.9 169.4L51.9 169.4L51.9 177.3L49.8 177.3L49.8 164.2L51.8 164.2L51.8 166.2L52.0 166.2Q52.4 165.2 53.4 164.6Q54.3 164.0 55.8 164.0L55.8 164.0Q57.1 164.0 58.1 164.5Q59.1 165.1 59.7 166.2Q60.2 167.3 60.2 168.9L60.2 168.9L60.2 177.3L58.2 177.3L58.2 169.1Q58.2 167.5 57.4 166.7Q56.6 165.8 55.2 165.8L55.2 165.8Q54.2 165.8 53.5 166.2Q52.7 166.6 52.3 167.4Q51.9 168.2 51.9 169.4ZM69.2 177.5L69.2 177.5Q67.4 177.5 66.1 176.7Q64.8 175.8 64.0 174.3Q63.3 172.8 63.3 170.8L63.3 170.8Q63.3 168.7 64.0 167.2Q64.8 165.7 66.1 164.8Q67.4 164.0 69.2 164.0L69.2 164.0Q71.0 164.0 72.3 164.8Q73.6 165.7 74.4 167.2Q75.1 168.7 75.1 170.8L75.1 170.8Q75.1 172.8 74.4 174.3Q73.6 175.8 72.3 176.7Q71.0 177.5 69.2 177.5ZM69.2 175.7L69.2 175.7Q70.6 175.7 71.4 175.0Q72.3 174.3 72.7 173.2Q73.1 172.1 73.1 170.8L73.1 170.8Q73.1 169.5 72.7 168.3Q72.3 167.2 71.4 166.5Q70.6 165.8 69.2 165.8L69.2 165.8Q67.9 165.8 67.0 166.5Q66.1 167.2 65.7 168.3Q65.3 169.5 65.3 170.8L65.3 170.8Q65.3 172.1 65.7 173.2Q66.1 174.3 67.0 175.0Q67.9 175.7 69.2 175.7ZM86.5 171.9L86.5 171.9L86.5 164.2L88.5 164.2L88.5 177.3L86.5 177.3L86.5 175.0L86.3 175.0Q85.9 176.0 84.9 176.7Q83.9 177.4 82.4 177.4L82.4 177.4Q81.2 177.4 80.3 176.9Q79.3 176.3 78.8 175.2Q78.2 174.1 78.2 172.5L78.2 172.5L78.2 164.2L80.2 164.2L80.2 172.3Q80.2 173.8 81.0 174.6Q81.8 175.5 83.1 175.5L83.1 175.5Q83.8 175.5 84.6 175.1Q85.4 174.7 85.9 173.9Q86.5 173.1 86.5 171.9ZM94.2 169.4L94.2 169.4L94.2 177.3L92.1 177.3L92.1 164.2L94.1 164.2L94.1 166.2L94.3 166.2Q94.7 165.2 95.7 164.6Q96.6 164.0 98.1 164.0L98.1 164.0Q99.4 164.0 100.4 164.5Q101.4 165.1 102.0 166.2Q102.5 167.3 102.5 168.9L102.5 168.9L102.5 177.3L100.5 177.3L100.5 169.1Q100.5 167.5 99.7 166.7Q98.9 165.8 97.5 165.8L97.5 165.8Q96.5 165.8 95.8 166.2Q95.0 166.6 94.6 167.4Q94.2 168.2 94.2 169.4Z "/><mask id="satori_om-id-1-1"><rect x="113" y="154" width="75" height="29" fill="#fff"/></mask><path fill="#666" d="M119.2 159.0L121.0 159.0L115.4 179.9L113.5 179.9L119.2 159.0ZM132.7 167.1L132.7 167.1L130.9 167.6Q130.7 167.2 130.4 166.7Q130.0 166.3 129.5 166.0Q128.9 165.7 128.0 165.7L128.0 165.7Q126.8 165.7 126.0 166.3Q125.2 166.8 125.2 167.7L125.2 167.7Q125.2 168.4 125.8 168.9Q126.3 169.3 127.5 169.6L127.5 169.6L129.4 170.1Q131.2 170.5 132.0 171.4Q132.9 172.2 132.9 173.6L132.9 173.6Q132.9 174.7 132.3 175.6Q131.6 176.5 130.5 177.0Q129.3 177.5 127.8 177.5L127.8 177.5Q125.8 177.5 124.5 176.7Q123.2 175.8 122.8 174.1L122.8 174.1L124.7 173.6Q125 174.7 125.8 175.2Q126.5 175.8 127.8 175.8L127.8 175.8Q129.2 175.8 130.0 175.1Q130.8 174.5 130.8 173.7L130.8 173.7Q130.8 173.0 130.4 172.6Q129.9 172.1 128.9 171.9L128.9 171.9L126.7 171.4Q124.9 170.9 124.1 170.0Q123.2 169.1 123.2 167.8L123.2 167.8Q123.2 166.7 123.9 165.8Q124.5 165.0 125.6 164.5Q126.7 164.0 128.0 164.0L128.0 164.0Q130.0 164.0 131.1 164.8Q132.2 165.7 132.7 167.1ZM134.9 164.2L141.6 164.2L141.6 165.9L134.9 165.9L134.9 164.2ZM136.8 174.0L136.8 161.0L138.8 161.0L138.8 173.5Q138.8 174.4 139.1 174.8Q139.3 175.2 139.7 175.3Q140.1 175.5 140.6 175.5L140.6 175.5Q140.9 175.5 141.1 175.4Q141.3 175.4 141.5 175.4L141.5 175.4L141.9 177.2Q141.7 177.3 141.3 177.3Q140.9 177.4 140.4 177.4L140.4 177.4Q139.5 177.4 138.7 177.1Q137.9 176.7 137.4 175.9Q136.8 175.2 136.8 174.0L136.8 174.0ZM150.0 177.5L150.0 177.5Q148.1 177.5 146.8 176.7Q145.4 175.8 144.7 174.3Q143.9 172.8 143.9 170.8L143.9 170.8Q143.9 168.8 144.7 167.3Q145.4 165.7 146.7 164.9Q148.0 164.0 149.8 164.0L149.8 164.0Q150.8 164.0 151.8 164.3Q152.8 164.7 153.7 165.4Q154.5 166.2 155.0 167.4Q155.4 168.7 155.4 170.5L155.4 170.5L155.4 171.4L145.4 171.4L145.4 169.6L153.4 169.6Q153.4 168.5 153.0 167.7Q152.5 166.8 151.7 166.3Q150.9 165.8 149.8 165.8L149.8 165.8Q148.6 165.8 147.7 166.4Q146.9 167.0 146.4 167.9Q145.9 168.9 145.9 170.0L145.9 170.0L145.9 171.1Q145.9 172.6 146.4 173.6Q147.0 174.7 147.9 175.2Q148.8 175.7 150.0 175.7L150.0 175.7Q150.8 175.7 151.5 175.5Q152.1 175.3 152.6 174.8Q153.0 174.4 153.3 173.7L153.3 173.7L155.2 174.2Q154.9 175.2 154.2 176.0Q153.5 176.7 152.4 177.1Q151.4 177.5 150.0 177.5ZM162.7 164.4L160.5 167.7L158.4 164.4L162.7 164.4ZM162.7 177.3L158.4 177.3L160.5 173.9L162.7 177.3ZM171.0 164.1L171.0 164.1Q172.3 164.1 173.3 164.6Q174.3 165.1 175.0 166.1L175.0 166.1L175.2 166.1L175.4 164.4L177.1 164.4L177.1 177.5Q177.1 179.3 176.5 180.5Q175.9 181.8 174.6 182.4Q173.3 183.0 171.4 183.0L171.4 183.0Q170.0 183.0 168.8 182.8Q167.6 182.6 166.7 182.2L166.7 182.2L166.7 180.3Q167.6 180.7 168.9 181.0Q170.1 181.3 171.5 181.3L171.5 181.3Q173.1 181.3 174.1 180.3Q175.0 179.3 175.0 177.6L175.0 177.6L175.0 177.1Q175.0 176.8 175.1 176.3Q175.1 175.8 175.1 175.5L175.1 175.5L175.0 175.5Q174.3 176.5 173.3 177.0Q172.3 177.5 171.0 177.5L171.0 177.5Q168.5 177.5 167.1 175.7Q165.7 174.0 165.7 170.8L165.7 170.8Q165.7 167.8 167.1 166.0Q168.5 164.1 171.0 164.1ZM171.3 165.9L171.3 165.9Q170.2 165.9 169.5 166.5Q168.7 167.1 168.3 168.2Q167.9 169.3 167.9 170.9L167.9 170.9Q167.9 173.2 168.8 174.5Q169.7 175.8 171.3 175.8L171.3 175.8Q172.3 175.8 173.0 175.5Q173.7 175.3 174.2 174.7Q174.6 174.2 174.8 173.3Q175.1 172.5 175.1 171.3L175.1 171.3L175.1 170.8Q175.1 169.1 174.7 168.0Q174.3 166.9 173.4 166.4Q172.6 165.9 171.3 165.9ZM185.3 159.0L187.2 159.0L181.5 179.9L179.7 179.9L185.3 159.0Z "/><mask id="satori_om-id-2"><rect x="48" y="215" width="435" height="39" fill="#fff"/></mask><mask id="satori_om-id-2-0"><rect x="48" y="215" width="67" height="39" fill="#fff"/></mask><path fill="black" d="M62.8 232.5L62.8 232.5L60.4 233.1Q60.2 232.5 59.7 232.0Q59.3 231.4 58.6 231.0Q57.8 230.6 56.6 230.6L56.6 230.6Q55.0 230.6 54.0 231.4Q52.9 232.1 52.9 233.2L52.9 233.2Q52.9 234.2 53.6 234.8Q54.4 235.4 55.9 235.8L55.9 235.8L58.5 236.4Q60.8 237.0 62.0 238.1Q63.1 239.3 63.1 241.1L63.1 241.1Q63.1 242.6 62.3 243.8Q61.4 245 59.9 245.7Q58.4 246.4 56.3 246.4L56.3 246.4Q53.6 246.4 51.9 245.2Q50.1 244.0 49.7 241.8L49.7 241.8L52.2 241.2Q52.6 242.6 53.6 243.3Q54.6 244 56.3 244L56.3 244Q58.1 244 59.3 243.2Q60.4 242.4 60.4 241.3L60.4 241.3Q60.4 240.4 59.7 239.7Q59.1 239.1 57.8 238.8L57.8 238.8L54.9 238.1Q52.5 237.6 51.3 236.4Q50.2 235.2 50.2 233.4L50.2 233.4Q50.2 231.9 51.1 230.8Q51.9 229.6 53.3 229.0Q54.8 228.3 56.6 228.3L56.6 228.3Q59.2 228.3 60.7 229.5Q62.2 230.6 62.8 232.5ZM65.7 228.5L74.8 228.5L74.8 230.8L65.7 230.8L65.7 228.5ZM68.4 241.7L68.4 224.4L71.0 224.4L71.0 241Q71.0 242.1 71.4 242.7Q71.7 243.3 72.2 243.4Q72.8 243.6 73.4 243.6L73.4 243.6Q73.8 243.6 74.1 243.6Q74.4 243.5 74.5 243.5L74.5 243.5L75.1 245.9Q74.8 246.0 74.3 246.1Q73.8 246.2 73.1 246.2L73.1 246.2Q72.0 246.2 70.9 245.7Q69.8 245.3 69.1 244.3Q68.4 243.3 68.4 241.7L68.4 241.7ZM86.0 246.4L86.0 246.4Q83.4 246.4 81.6 245.2Q79.8 244.1 78.8 242.1Q77.8 240.1 77.8 237.4L77.8 237.4Q77.8 234.7 78.8 232.7Q79.8 230.6 81.6 229.5Q83.3 228.3 85.7 228.3L85.7 228.3Q87.0 228.3 88.4 228.8Q89.7 229.2 90.8 230.2Q91.9 231.3 92.5 232.9Q93.2 234.6 93.2 237.0L93.2 237.0L93.2 238.2L79.7 238.2L79.7 235.9L90.5 235.9Q90.5 234.4 89.9 233.2Q89.3 232.1 88.2 231.4Q87.1 230.7 85.7 230.7L85.7 230.7Q84.1 230.7 82.9 231.5Q81.7 232.3 81.1 233.6Q80.5 234.8 80.5 236.3L80.5 236.3L80.5 237.8Q80.5 239.8 81.2 241.2Q81.9 242.5 83.1 243.2Q84.3 244.0 86.0 244.0L86.0 244.0Q87.0 244.0 87.9 243.7Q88.7 243.4 89.4 242.7Q90.0 242.1 90.3 241.2L90.3 241.2L92.9 242.0Q92.5 243.3 91.5 244.3Q90.6 245.3 89.1 245.8Q87.7 246.4 86.0 246.4ZM100.0 252.5L97.3 252.5L97.3 228.5L99.9 228.5L99.9 231.3L100.2 231.3Q100.5 230.9 101.0 230.2Q101.5 229.4 102.5 228.9Q103.5 228.3 105.2 228.3L105.2 228.3Q107.4 228.3 109.1 229.4Q110.8 230.5 111.7 232.5Q112.7 234.6 112.7 237.3L112.7 237.3Q112.7 240.1 111.7 242.1Q110.8 244.1 109.1 245.3Q107.5 246.4 105.3 246.4L105.3 246.4Q103.6 246.4 102.6 245.8Q101.6 245.2 101.0 244.5Q100.5 243.8 100.2 243.3L100.2 243.3L100.0 243.3L100.0 252.5ZM99.9 237.3L99.9 237.3Q99.9 239.3 100.5 240.8Q101.1 242.3 102.2 243.1Q103.3 244.0 104.9 244.0L104.9 244.0Q106.6 244.0 107.7 243.1Q108.9 242.2 109.4 240.7Q110 239.1 110 237.3L110 237.3Q110 235.4 109.4 233.9Q108.9 232.5 107.7 231.6Q106.6 230.7 104.9 230.7L104.9 230.7Q103.3 230.7 102.2 231.6Q101.0 232.4 100.5 233.8Q99.9 235.3 99.9 237.3Z "/><mask id="satori_om-id-2-1"><rect x="123" y="230" width="62" height="24" fill="#fff"/></mask><path fill="#666" d="M129.6 252.3L125.4 252.3L125.4 234.1L129.6 234.1L129.6 235.5L126.9 235.5L126.9 250.9L129.6 250.9L129.6 252.3ZM133.5 242.8L133.5 242.8L133.5 249.4L131.8 249.4L131.8 238.5L133.4 238.5L133.4 240.2L133.5 240.2Q133.9 239.3 134.7 238.8Q135.5 238.3 136.7 238.3L136.7 238.3Q137.8 238.3 138.7 238.8Q139.5 239.2 140.0 240.1Q140.4 241.1 140.4 242.4L140.4 242.4L140.4 249.4L138.7 249.4L138.7 242.6Q138.7 241.3 138.1 240.6Q137.4 239.8 136.2 239.8L136.2 239.8Q135.4 239.8 134.8 240.2Q134.2 240.5 133.8 241.2Q133.5 241.9 133.5 242.8ZM147.9 249.6L147.9 249.6Q146.4 249.6 145.3 248.9Q144.2 248.2 143.6 246.9Q143.0 245.7 143.0 244.0L143.0 244.0Q143.0 242.3 143.6 241.0Q144.2 239.7 145.3 239.0Q146.4 238.3 147.9 238.3L147.9 238.3Q149.4 238.3 150.5 239.0Q151.6 239.7 152.2 241.0Q152.9 242.3 152.9 244.0L152.9 244.0Q152.9 245.7 152.2 246.9Q151.6 248.2 150.5 248.9Q149.4 249.6 147.9 249.6ZM147.9 248.1L147.9 248.1Q149.0 248.1 149.8 247.5Q150.5 246.9 150.8 246.0Q151.2 245.1 151.2 244.0L151.2 244.0Q151.2 242.9 150.8 241.9Q150.5 241.0 149.8 240.4Q149.0 239.8 147.9 239.8L147.9 239.8Q146.8 239.8 146.1 240.4Q145.3 241.0 145.0 241.9Q144.6 242.9 144.6 244.0L144.6 244.0Q144.6 245.1 145.0 246.0Q145.3 246.9 146.1 247.5Q146.8 248.1 147.9 248.1ZM162.3 244.9L162.3 244.9L162.3 238.5L164.0 238.5L164.0 249.4L162.3 249.4L162.3 247.5L162.2 247.5Q161.8 248.4 161.0 248.9Q160.2 249.5 158.9 249.5L158.9 249.5Q157.9 249.5 157.1 249.1Q156.3 248.6 155.9 247.7Q155.4 246.8 155.4 245.4L155.4 245.4L155.4 238.5L157.1 238.5L157.1 245.3Q157.1 246.5 157.8 247.2Q158.4 247.9 159.5 247.9L159.5 247.9Q160.1 247.9 160.8 247.6Q161.4 247.3 161.8 246.6Q162.3 245.9 162.3 244.9ZM168.7 242.8L168.7 242.8L168.7 249.4L167.0 249.4L167.0 238.5L168.7 238.5L168.7 240.2L168.8 240.2Q169.2 239.3 170.0 238.8Q170.7 238.3 172.0 238.3L172.0 238.3Q173.1 238.3 173.9 238.8Q174.7 239.2 175.2 240.1Q175.7 241.1 175.7 242.4L175.7 242.4L175.7 249.4L174.0 249.4L174.0 242.6Q174.0 241.3 173.3 240.6Q172.7 239.8 171.5 239.8L171.5 239.8Q170.7 239.8 170.1 240.2Q169.4 240.5 169.1 241.2Q168.7 241.9 168.7 242.8ZM177.9 234.1L182.1 234.1L182.1 252.3L177.9 252.3L177.9 250.9L180.5 250.9L180.5 235.5L177.9 235.5L177.9 234.1Z "/><mask id="satori_om-id-2-2"><rect x="193" y="215" width="290" height="39" fill="#fff"/></mask><path fill="black" d="M200.6 246.4L200.6 246.4Q198.9 246.4 197.6 245.8Q196.2 245.1 195.4 243.9Q194.6 242.8 194.6 241.0L194.6 241.0Q194.6 239.5 195.2 238.6Q195.8 237.7 196.8 237.1Q197.8 236.6 199.0 236.3Q200.2 236.1 201.4 235.9L201.4 235.9Q203 235.7 204.0 235.6Q205.0 235.5 205.4 235.2Q205.9 235.0 205.9 234.3L205.9 234.3L205.9 234.2Q205.9 232.5 205.0 231.6Q204.1 230.7 202.2 230.7L202.2 230.7Q200.3 230.7 199.2 231.5Q198.1 232.4 197.7 233.3L197.7 233.3L195.1 232.4Q195.8 230.8 197.0 229.9Q198.1 229.0 199.5 228.7Q200.8 228.3 202.1 228.3L202.1 228.3Q203.0 228.3 204.1 228.5Q205.2 228.7 206.2 229.3Q207.2 229.9 207.9 231.2Q208.6 232.4 208.6 234.5L208.6 234.5L208.6 246L205.9 246L205.9 243.6L205.8 243.6Q205.5 244.2 204.9 244.9Q204.2 245.5 203.2 246.0Q202.1 246.4 200.6 246.4ZM201 244L201 244Q202.6 244 203.7 243.4Q204.8 242.8 205.3 241.8Q205.9 240.8 205.9 239.7L205.9 239.7L205.9 237.2Q205.7 237.4 205.2 237.6Q204.6 237.8 203.8 237.9Q203.1 238 202.4 238.1Q201.7 238.2 201.3 238.2L201.3 238.2Q200.2 238.4 199.3 238.7Q198.4 239.0 197.9 239.6Q197.3 240.2 197.3 241.2L197.3 241.2Q197.3 242.6 198.4 243.3Q199.4 244 201 244Z M234.9 232.5L234.9 232.5L232.5 233.1Q232.2 232.5 231.8 232.0Q231.4 231.4 230.6 231.0Q229.9 230.6 228.7 230.6L228.7 230.6Q227.1 230.6 226.0 231.4Q225.0 232.1 225.0 233.2L225.0 233.2Q225.0 234.2 225.7 234.8Q226.4 235.4 228.0 235.8L228.0 235.8L230.5 236.4Q232.9 237.0 234.0 238.1Q235.2 239.3 235.2 241.1L235.2 241.1Q235.2 242.6 234.3 243.8Q233.5 245 231.9 245.7Q230.4 246.4 228.4 246.4L228.4 246.4Q225.7 246.4 223.9 245.2Q222.2 244.0 221.7 241.8L221.7 241.8L224.3 241.2Q224.6 242.6 225.7 243.3Q226.7 244 228.3 244L228.3 244Q230.2 244 231.3 243.2Q232.4 242.4 232.4 241.3L232.4 241.3Q232.4 240.4 231.8 239.7Q231.1 239.1 229.8 238.8L229.8 238.8L226.9 238.1Q224.5 237.6 223.4 236.4Q222.3 235.2 222.3 233.4L222.3 233.4Q222.3 231.9 223.1 230.8Q223.9 229.6 225.4 229.0Q226.8 228.3 228.7 228.3L228.7 228.3Q231.3 228.3 232.8 229.5Q234.2 230.6 234.9 232.5ZM237.8 228.5L246.8 228.5L246.8 230.8L237.8 230.8L237.8 228.5ZM240.4 241.7L240.4 224.4L243.1 224.4L243.1 241Q243.1 242.1 243.4 242.7Q243.8 243.3 244.3 243.4Q244.8 243.6 245.4 243.6L245.4 243.6Q245.9 243.6 246.1 243.6Q246.4 243.5 246.6 243.5L246.6 243.5L247.1 245.9Q246.9 246.0 246.4 246.1Q245.9 246.2 245.1 246.2L245.1 246.2Q244 246.2 242.9 245.7Q241.8 245.3 241.1 244.3Q240.4 243.3 240.4 241.7L240.4 241.7ZM256 246.4L256 246.4Q254.3 246.4 253.0 245.8Q251.6 245.1 250.8 243.9Q250.0 242.8 250.0 241.0L250.0 241.0Q250.0 239.5 250.6 238.6Q251.2 237.7 252.2 237.1Q253.2 236.6 254.4 236.3Q255.6 236.1 256.8 235.9L256.8 235.9Q258.4 235.7 259.4 235.6Q260.4 235.5 260.9 235.2Q261.3 235.0 261.3 234.3L261.3 234.3L261.3 234.2Q261.3 232.5 260.4 231.6Q259.5 230.7 257.6 230.7L257.6 230.7Q255.7 230.7 254.6 231.5Q253.5 232.4 253.1 233.3L253.1 233.3L250.5 232.4Q251.2 230.8 252.4 229.9Q253.5 229.0 254.9 228.7Q256.2 228.3 257.5 228.3L257.5 228.3Q258.4 228.3 259.5 228.5Q260.6 228.7 261.6 229.3Q262.6 229.9 263.3 231.2Q264 232.4 264 234.5L264 234.5L264 246L261.3 246L261.3 243.6L261.2 243.6Q260.9 244.2 260.3 244.9Q259.6 245.5 258.6 246.0Q257.5 246.4 256 246.4ZM256.4 244L256.4 244Q258 244 259.1 243.4Q260.2 242.8 260.8 241.8Q261.3 240.8 261.3 239.7L261.3 239.7L261.3 237.2Q261.1 237.4 260.6 237.6Q260 237.8 259.3 237.9Q258.5 238 257.8 238.1Q257.1 238.2 256.7 238.2L256.7 238.2Q255.6 238.4 254.7 238.7Q253.8 239.0 253.3 239.6Q252.7 240.2 252.7 241.2L252.7 241.2Q252.7 242.6 253.8 243.3Q254.8 244 256.4 244ZM276.0 252.9L276.0 252.9Q274.0 252.9 272.6 252.4Q271.2 251.9 270.3 251.1Q269.4 250.3 268.8 249.4L268.8 249.4L271.0 247.9Q271.3 248.4 271.9 249.0Q272.4 249.6 273.4 250.1Q274.4 250.5 276.0 250.5L276.0 250.5Q278.1 250.5 279.4 249.5Q280.8 248.5 280.8 246.3L280.8 246.3L280.8 242.8L280.6 242.8Q280.3 243.3 279.8 243.9Q279.2 244.6 278.2 245.2Q277.2 245.7 275.5 245.7L275.5 245.7Q273.4 245.7 271.7 244.7Q270.0 243.7 269.1 241.8Q268.1 239.9 268.1 237.2L268.1 237.2Q268.1 234.5 269.0 232.5Q270.0 230.5 271.7 229.4Q273.3 228.3 275.5 228.3L275.5 228.3Q277.3 228.3 278.3 228.9Q279.3 229.4 279.8 230.2Q280.3 230.9 280.6 231.3L280.6 231.3L280.9 231.3L280.9 228.5L283.5 228.5L283.5 246.5Q283.5 248.8 282.5 250.2Q281.5 251.6 279.8 252.2Q278.0 252.9 276.0 252.9ZM275.9 243.3L275.9 243.3Q277.5 243.3 278.6 242.6Q279.7 241.8 280.3 240.5Q280.9 239.1 280.9 237.1L280.9 237.1Q280.9 235.3 280.3 233.8Q279.7 232.4 278.6 231.5Q277.5 230.7 275.9 230.7L275.9 230.7Q274.2 230.7 273.0 231.6Q271.9 232.5 271.3 233.9Q270.8 235.4 270.8 237.1L270.8 237.1Q270.8 239.0 271.3 240.3Q271.9 241.7 273.1 242.5Q274.2 243.3 275.9 243.3ZM295.7 246.4L295.7 246.4Q293.2 246.4 291.4 245.2Q289.6 244.1 288.6 242.1Q287.6 240.1 287.6 237.4L287.6 237.4Q287.6 234.7 288.6 232.7Q289.6 230.6 291.3 229.5Q293.1 228.3 295.5 228.3L295.5 228.3Q296.8 228.3 298.1 228.8Q299.5 229.2 300.6 230.2Q301.7 231.3 302.3 232.9Q303.0 234.6 303.0 237.0L303.0 237.0L303.0 238.2L289.5 238.2L289.5 235.9L300.2 235.9Q300.2 234.4 299.6 233.2Q299.1 232.1 298.0 231.4Q296.9 230.7 295.5 230.7L295.5 230.7Q293.9 230.7 292.7 231.5Q291.5 232.3 290.9 233.6Q290.3 234.8 290.3 236.3L290.3 236.3L290.3 237.8Q290.3 239.8 291.0 241.2Q291.6 242.5 292.9 243.2Q294.1 244.0 295.7 244.0L295.7 244.0Q296.8 244.0 297.6 243.7Q298.5 243.4 299.1 242.7Q299.8 242.1 300.1 241.2L300.1 241.2L302.7 242.0Q302.3 243.3 301.3 244.3Q300.3 245.3 298.9 245.8Q297.5 246.4 295.7 246.4Z M318.7 246L316.0 246L316.0 228.5L318.7 228.5L318.7 246ZM317.4 225.6L317.4 225.6Q316.6 225.6 316.1 225.1Q315.5 224.6 315.5 223.8L315.5 223.8Q315.5 223.1 316.1 222.5Q316.6 222 317.4 222L317.4 222Q318.2 222 318.8 222.5Q319.3 223.1 319.3 223.8L319.3 223.8Q319.3 224.6 318.8 225.1Q318.2 225.6 317.4 225.6ZM326.3 235.5L326.3 235.5L326.3 246L323.6 246L323.6 228.5L326.2 228.5L326.2 231.3L326.5 231.3Q327.1 229.9 328.3 229.1Q329.6 228.3 331.5 228.3L331.5 228.3Q333.3 228.3 334.6 229.0Q336.0 229.8 336.7 231.2Q337.5 232.7 337.5 234.9L337.5 234.9L337.5 246L334.8 246L334.8 235.1Q334.8 233.0 333.7 231.9Q332.6 230.7 330.8 230.7L330.8 230.7Q329.5 230.7 328.5 231.3Q327.5 231.8 326.9 232.9Q326.3 234.0 326.3 235.5Z M354.0 252.5L351.4 252.5L351.4 228.5L354.0 228.5L354.0 231.3L354.3 231.3Q354.6 230.9 355.1 230.2Q355.6 229.4 356.6 228.9Q357.6 228.3 359.3 228.3L359.3 228.3Q361.5 228.3 363.2 229.4Q364.9 230.5 365.8 232.5Q366.8 234.6 366.8 237.3L366.8 237.3Q366.8 240.1 365.8 242.1Q364.9 244.1 363.2 245.3Q361.5 246.4 359.4 246.4L359.4 246.4Q357.7 246.4 356.7 245.8Q355.7 245.2 355.1 244.5Q354.6 243.8 354.3 243.3L354.3 243.3L354.0 243.3L354.0 252.5ZM354.0 237.3L354.0 237.3Q354.0 239.3 354.6 240.8Q355.2 242.3 356.3 243.1Q357.4 244.0 359.0 244.0L359.0 244.0Q360.7 244.0 361.8 243.1Q362.9 242.2 363.5 240.7Q364.1 239.1 364.1 237.3L364.1 237.3Q364.1 235.4 363.5 233.9Q363.0 232.5 361.8 231.6Q360.7 230.7 359.0 230.7L359.0 230.7Q357.4 230.7 356.2 231.6Q355.1 232.4 354.6 233.8Q354.0 235.3 354.0 237.3ZM373.5 246L370.9 246L370.9 228.5L373.5 228.5L373.5 231.2L373.6 231.2Q374.1 229.9 375.4 229.1Q376.6 228.3 378.2 228.3L378.2 228.3Q378.5 228.3 378.9 228.3Q379.4 228.3 379.6 228.3L379.6 228.3L379.6 231.0Q379.5 231.0 379.0 230.9Q378.5 230.9 378.0 230.9L378.0 230.9Q376.7 230.9 375.7 231.4Q374.7 231.9 374.1 232.8Q373.5 233.8 373.5 235.0L373.5 235.0L373.5 246ZM389.3 246.4L389.3 246.4Q387.0 246.4 385.2 245.2Q383.4 244.1 382.4 242.1Q381.4 240.1 381.4 237.4L381.4 237.4Q381.4 234.6 382.4 232.6Q383.4 230.6 385.2 229.4Q387.0 228.3 389.3 228.3L389.3 228.3Q391.7 228.3 393.5 229.4Q395.2 230.6 396.2 232.6Q397.2 234.6 397.2 237.4L397.2 237.4Q397.2 240.1 396.2 242.1Q395.2 244.1 393.5 245.2Q391.7 246.4 389.3 246.4ZM389.3 244.0L389.3 244.0Q391.1 244.0 392.3 243.0Q393.4 242.1 394.0 240.6Q394.5 239.1 394.5 237.4L394.5 237.4Q394.5 235.6 394.0 234.1Q393.4 232.6 392.3 231.7Q391.1 230.7 389.3 230.7L389.3 230.7Q387.5 230.7 386.4 231.7Q385.2 232.6 384.6 234.1Q384.1 235.6 384.1 237.4L384.1 237.4Q384.1 239.1 384.6 240.6Q385.2 242.1 386.4 243.0Q387.5 244.0 389.3 244.0ZM408.4 252.9L408.4 252.9Q406.4 252.9 405.0 252.4Q403.6 251.9 402.7 251.1Q401.8 250.3 401.2 249.4L401.2 249.4L403.4 247.9Q403.7 248.4 404.3 249.0Q404.8 249.6 405.8 250.1Q406.8 250.5 408.4 250.5L408.4 250.5Q410.5 250.5 411.9 249.5Q413.2 248.5 413.2 246.3L413.2 246.3L413.2 242.8L413.0 242.8Q412.7 243.3 412.2 243.9Q411.6 244.6 410.6 245.2Q409.6 245.7 407.9 245.7L407.9 245.7Q405.8 245.7 404.1 244.7Q402.4 243.7 401.5 241.8Q400.5 239.9 400.5 237.2L400.5 237.2Q400.5 234.5 401.4 232.5Q402.4 230.5 404.1 229.4Q405.7 228.3 408.0 228.3L408.0 228.3Q409.7 228.3 410.7 228.9Q411.7 229.4 412.2 230.2Q412.7 230.9 413.0 231.3L413.0 231.3L413.3 231.3L413.3 228.5L415.9 228.5L415.9 246.5Q415.9 248.8 414.9 250.2Q413.9 251.6 412.2 252.2Q410.5 252.9 408.4 252.9ZM408.3 243.3L408.3 243.3Q409.9 243.3 411.0 242.6Q412.1 241.8 412.7 240.5Q413.3 239.1 413.3 237.1L413.3 237.1Q413.3 235.3 412.7 233.8Q412.1 232.4 411.0 231.5Q409.9 230.7 408.3 230.7L408.3 230.7Q406.6 230.7 405.4 231.6Q404.3 232.5 403.7 233.9Q403.2 235.4 403.2 237.1L403.2 237.1Q403.2 239.0 403.8 240.3Q404.3 241.7 405.5 242.5Q406.6 243.3 408.3 243.3ZM423.5 246L420.8 246L420.8 228.5L423.4 228.5L423.4 231.2L423.6 231.2Q424.1 229.9 425.3 229.1Q426.6 228.3 428.1 228.3L428.1 228.3Q428.4 228.3 428.9 228.3Q429.3 228.3 429.5 228.3L429.5 228.3L429.5 231.0Q429.4 231.0 428.9 230.9Q428.4 230.9 427.9 230.9L427.9 230.9Q426.6 230.9 425.6 231.4Q424.6 231.9 424.1 232.8Q423.5 233.8 423.5 235.0L423.5 235.0L423.5 246ZM439.5 246.4L439.5 246.4Q437.0 246.4 435.2 245.2Q433.3 244.1 432.3 242.1Q431.4 240.1 431.4 237.4L431.4 237.4Q431.4 234.7 432.3 232.7Q433.3 230.6 435.1 229.5Q436.9 228.3 439.2 228.3L439.2 228.3Q440.6 228.3 441.9 228.8Q443.2 229.2 444.3 230.2Q445.4 231.3 446.1 232.9Q446.7 234.6 446.7 237.0L446.7 237.0L446.7 238.2L433.3 238.2L433.3 235.9L444.0 235.9Q444.0 234.4 443.4 233.2Q442.8 232.1 441.8 231.4Q440.7 230.7 439.2 230.7L439.2 230.7Q437.6 230.7 436.5 231.5Q435.3 232.3 434.7 233.6Q434.0 234.8 434.0 236.3L434.0 236.3L434.0 237.8Q434.0 239.8 434.7 241.2Q435.4 242.5 436.6 243.2Q437.9 244.0 439.5 244.0L439.5 244.0Q440.6 244.0 441.4 243.7Q442.3 243.4 442.9 242.7Q443.5 242.1 443.9 241.2L443.9 241.2L446.5 242.0Q446.0 243.3 445.1 244.3Q444.1 245.3 442.7 245.8Q441.3 246.4 439.5 246.4ZM463.2 232.5L463.2 232.5L460.8 233.1Q460.5 232.5 460.1 232.0Q459.7 231.4 458.9 231.0Q458.2 230.6 457.0 230.6L457.0 230.6Q455.4 230.6 454.3 231.4Q453.3 232.1 453.3 233.2L453.3 233.2Q453.3 234.2 454.0 234.8Q454.7 235.4 456.3 235.8L456.3 235.8L458.9 236.4Q461.2 237.0 462.4 238.1Q463.5 239.3 463.5 241.1L463.5 241.1Q463.5 242.6 462.6 243.8Q461.8 245 460.2 245.7Q458.7 246.4 456.7 246.4L456.7 246.4Q454.0 246.4 452.3 245.2Q450.5 244.0 450.0 241.8L450.0 241.8L452.6 241.2Q453.0 242.6 454.0 243.3Q455.0 244 456.6 244L456.6 244Q458.5 244 459.6 243.2Q460.7 242.4 460.7 241.3L460.7 241.3Q460.7 240.4 460.1 239.7Q459.5 239.1 458.1 238.8L458.1 238.8L455.2 238.1Q452.8 237.6 451.7 236.4Q450.6 235.2 450.6 233.4L450.6 233.4Q450.6 231.9 451.4 230.8Q452.3 229.6 453.7 229.0Q455.2 228.3 457.0 228.3L457.0 228.3Q459.6 228.3 461.1 229.5Q462.6 230.6 463.2 232.5ZM479.9 232.5L479.9 232.5L477.5 233.1Q477.3 232.5 476.8 232.0Q476.4 231.4 475.6 231.0Q474.9 230.6 473.7 230.6L473.7 230.6Q472.1 230.6 471.1 231.4Q470 232.1 470 233.2L470 233.2Q470 234.2 470.7 234.8Q471.5 235.4 473 235.8L473 235.8L475.6 236.4Q477.9 237.0 479.1 238.1Q480.2 239.3 480.2 241.1L480.2 241.1Q480.2 242.6 479.4 243.8Q478.5 245 477.0 245.7Q475.4 246.4 473.4 246.4L473.4 246.4Q470.7 246.4 469.0 245.2Q467.2 244.0 466.8 241.8L466.8 241.8L469.3 241.2Q469.7 242.6 470.7 243.3Q471.7 244 473.4 244L473.4 244Q475.2 244 476.3 243.2Q477.5 242.4 477.5 241.3L477.5 241.3Q477.5 240.4 476.8 239.7Q476.2 239.1 474.9 238.8L474.9 238.8L472.0 238.1Q469.6 237.6 468.4 236.4Q467.3 235.2 467.3 233.4L467.3 233.4Q467.3 231.9 468.2 230.8Q469.0 229.6 470.4 229.0Q471.9 228.3 473.7 228.3L473.7 228.3Q476.3 228.3 477.8 229.5Q479.3 230.6 479.9 232.5Z "/><mask id="satori_om-id-3"><rect x="48" y="302" width="137" height="29" fill="#fff"/></mask><path fill="#666" d="M55.1 330.4L55.1 330.4Q53.7 330.4 52.6 330.1Q51.6 329.7 50.9 329.1Q50.2 328.5 49.8 327.8L49.8 327.8L51.4 326.7Q51.6 327.0 52.1 327.5Q52.5 328.0 53.2 328.3Q53.9 328.7 55.1 328.7L55.1 328.7Q56.7 328.7 57.7 327.9Q58.8 327.1 58.8 325.5L58.8 325.5L58.8 322.8L58.6 322.8Q58.4 323.2 58.0 323.7Q57.6 324.2 56.8 324.6Q56.1 325.0 54.8 325.0L54.8 325.0Q53.2 325.0 51.9 324.3Q50.7 323.5 50.0 322.1Q49.2 320.7 49.2 318.6L49.2 318.6Q49.2 316.6 49.9 315.1Q50.6 313.6 51.9 312.8Q53.2 312.0 54.8 312.0L54.8 312.0Q56.1 312.0 56.9 312.4Q57.6 312.8 58.0 313.4Q58.4 313.9 58.6 314.2L58.6 314.2L58.8 314.2L58.8 312.2L60.8 312.2L60.8 325.6Q60.8 327.3 60.0 328.4Q59.3 329.4 58.0 329.9Q56.7 330.4 55.1 330.4ZM55.1 323.2L55.1 323.2Q56.3 323.2 57.1 322.7Q57.9 322.1 58.4 321.1Q58.8 320.1 58.8 318.6L58.8 318.6Q58.8 317.2 58.4 316.1Q58.0 315.0 57.1 314.4Q56.3 313.8 55.1 313.8L55.1 313.8Q53.8 313.8 52.9 314.4Q52.1 315.1 51.7 316.2Q51.2 317.3 51.2 318.6L51.2 318.6Q51.2 320.0 51.7 321.0Q52.1 322.1 52.9 322.6Q53.8 323.2 55.1 323.2ZM70.0 325.5L70.0 325.5Q68.1 325.5 66.7 324.7Q65.3 323.8 64.6 322.3Q63.9 320.8 63.9 318.8L63.9 318.8Q63.9 316.8 64.6 315.3Q65.3 313.7 66.7 312.9Q68.0 312.0 69.8 312.0L69.8 312.0Q70.8 312.0 71.8 312.3Q72.8 312.7 73.6 313.4Q74.4 314.2 74.9 315.4Q75.4 316.7 75.4 318.5L75.4 318.5L75.4 319.4L65.3 319.4L65.3 317.6L73.3 317.6Q73.3 316.5 72.9 315.7Q72.5 314.8 71.6 314.3Q70.8 313.8 69.8 313.8L69.8 313.8Q68.5 313.8 67.7 314.4Q66.8 315.0 66.3 315.9Q65.9 316.9 65.9 318.0L65.9 318.0L65.9 319.1Q65.9 320.6 66.4 321.6Q66.9 322.7 67.8 323.2Q68.7 323.7 70.0 323.7L70.0 323.7Q70.7 323.7 71.4 323.5Q72.0 323.3 72.5 322.8Q73.0 322.4 73.2 321.7L73.2 321.7L75.2 322.2Q74.9 323.2 74.1 324.0Q73.4 324.7 72.3 325.1Q71.3 325.5 70.0 325.5ZM77.4 312.2L84.1 312.2L84.1 313.9L77.4 313.9L77.4 312.2ZM79.3 322.0L79.3 309.0L81.3 309.0L81.3 321.5Q81.3 322.4 81.6 322.8Q81.8 323.2 82.2 323.3Q82.6 323.5 83.1 323.5L83.1 323.5Q83.4 323.5 83.6 323.4Q83.8 323.4 84.0 323.4L84.0 323.4L84.4 325.2Q84.2 325.3 83.8 325.3Q83.4 325.4 82.9 325.4L82.9 325.4Q82.0 325.4 81.2 325.1Q80.4 324.7 79.9 323.9Q79.3 323.2 79.3 322.0L79.3 322.0ZM96.2 315.1L96.2 315.1L94.4 315.6Q94.2 315.2 93.9 314.7Q93.6 314.3 93.0 314.0Q92.4 313.7 91.6 313.7L91.6 313.7Q90.4 313.7 89.6 314.3Q88.8 314.8 88.8 315.7L88.8 315.7Q88.8 316.4 89.3 316.9Q89.9 317.3 91.0 317.6L91.0 317.6L93.0 318.1Q94.7 318.5 95.6 319.4Q96.4 320.2 96.4 321.6L96.4 321.6Q96.4 322.7 95.8 323.6Q95.2 324.5 94.0 325.0Q92.9 325.5 91.3 325.5L91.3 325.5Q89.3 325.5 88.0 324.7Q86.7 323.8 86.4 322.1L86.4 322.1L88.3 321.6Q88.5 322.7 89.3 323.2Q90.1 323.8 91.3 323.8L91.3 323.8Q92.7 323.8 93.5 323.1Q94.4 322.5 94.4 321.7L94.4 321.7Q94.4 321.0 93.9 320.6Q93.4 320.1 92.4 319.9L92.4 319.9L90.2 319.4Q88.4 318.9 87.6 318.0Q86.8 317.1 86.8 315.8L86.8 315.8Q86.8 314.7 87.4 313.8Q88.0 313.0 89.1 312.5Q90.2 312.0 91.6 312.0L91.6 312.0Q93.5 312.0 94.6 312.8Q95.7 313.7 96.2 315.1ZM98.4 312.2L105.2 312.2L105.2 313.9L98.4 313.9L98.4 312.2ZM100.4 322.0L100.4 309.0L102.4 309.0L102.4 321.5Q102.4 322.4 102.6 322.8Q102.9 323.2 103.3 323.3Q103.7 323.5 104.1 323.5L104.1 323.5Q104.4 323.5 104.7 323.4Q104.9 323.4 105.0 323.4L105.0 323.4L105.4 325.2Q105.2 325.3 104.8 325.3Q104.5 325.4 103.9 325.4L103.9 325.4Q103.1 325.4 102.2 325.1Q101.4 324.7 100.9 323.9Q100.4 323.2 100.4 322.0L100.4 322.0ZM113.6 325.5L113.6 325.5Q111.7 325.5 110.3 324.7Q108.9 323.8 108.2 322.3Q107.5 320.8 107.5 318.8L107.5 318.8Q107.5 316.8 108.2 315.3Q108.9 313.7 110.3 312.9Q111.6 312.0 113.4 312.0L113.4 312.0Q114.4 312.0 115.4 312.3Q116.4 312.7 117.2 313.4Q118.0 314.2 118.5 315.4Q119.0 316.7 119.0 318.5L119.0 318.5L119.0 319.4L108.9 319.4L108.9 317.6L116.9 317.6Q116.9 316.5 116.5 315.7Q116.1 314.8 115.2 314.3Q114.4 313.8 113.4 313.8L113.4 313.8Q112.2 313.8 111.3 314.4Q110.4 315.0 109.9 315.9Q109.5 316.9 109.5 318.0L109.5 318.0L109.5 319.1Q109.5 320.6 110.0 321.6Q110.5 322.7 111.4 323.2Q112.3 323.7 113.6 323.7L113.6 323.7Q114.3 323.7 115.0 323.5Q115.6 323.3 116.1 322.8Q116.6 322.4 116.8 321.7L116.8 321.7L118.8 322.2Q118.5 323.2 117.7 324.0Q117.0 324.7 116.0 325.1Q114.9 325.5 113.6 325.5ZM127.3 330.4L127.3 330.4Q125.9 330.4 124.8 330.1Q123.8 329.7 123.1 329.1Q122.4 328.5 122.0 327.8L122.0 327.8L123.6 326.7Q123.9 327.0 124.3 327.5Q124.7 328.0 125.4 328.3Q126.1 328.7 127.3 328.7L127.3 328.7Q128.9 328.7 129.9 327.9Q131.0 327.1 131.0 325.5L131.0 325.5L131.0 322.8L130.8 322.8Q130.6 323.2 130.2 323.7Q129.8 324.2 129.0 324.6Q128.3 325.0 127.0 325.0L127.0 325.0Q125.4 325.0 124.1 324.3Q122.9 323.5 122.2 322.1Q121.4 320.7 121.4 318.6L121.4 318.6Q121.4 316.6 122.1 315.1Q122.8 313.6 124.1 312.8Q125.4 312.0 127.0 312.0L127.0 312.0Q128.3 312.0 129.1 312.4Q129.8 312.8 130.2 313.4Q130.6 313.9 130.8 314.2L130.8 314.2L131.0 314.2L131.0 312.2L133.0 312.2L133.0 325.6Q133.0 327.3 132.2 328.4Q131.5 329.4 130.2 329.9Q128.9 330.4 127.3 330.4ZM127.3 323.2L127.3 323.2Q128.5 323.2 129.3 322.7Q130.1 322.1 130.6 321.1Q131.0 320.1 131.0 318.6L131.0 318.6Q131.0 317.2 130.6 316.1Q130.2 315.0 129.3 314.4Q128.5 313.8 127.3 313.8L127.3 313.8Q126.0 313.8 125.1 314.4Q124.3 315.1 123.9 316.2Q123.4 317.3 123.4 318.6L123.4 318.6Q123.4 320.0 123.9 321.0Q124.3 322.1 125.2 322.6Q126.0 323.2 127.3 323.2ZM138.1 325.4L138.1 325.4Q137.5 325.4 137.1 324.9Q136.6 324.5 136.6 323.9L136.6 323.9Q136.6 323.2 137.1 322.8Q137.5 322.3 138.1 322.3L138.1 322.3Q138.8 322.3 139.2 322.8Q139.7 323.2 139.7 323.9L139.7 323.9Q139.7 324.3 139.5 324.6Q139.3 325.0 138.9 325.2Q138.6 325.4 138.1 325.4ZM147.1 325.6L147.1 325.6Q145.9 325.6 144.9 325.1Q143.9 324.6 143.3 323.7Q142.7 322.8 142.7 321.5L142.7 321.5Q142.7 320.4 143.1 319.7Q143.6 319.0 144.3 318.6Q145.0 318.2 145.9 318.0Q146.8 317.8 147.8 317.7L147.8 317.7Q148.9 317.5 149.7 317.4Q150.4 317.4 150.8 317.2Q151.1 317.0 151.1 316.5L151.1 316.5L151.1 316.4Q151.1 315.2 150.4 314.5Q149.8 313.8 148.4 313.8L148.4 313.8Q146.9 313.8 146.1 314.4Q145.3 315.0 145.0 315.7L145.0 315.7L143.0 315.1Q143.6 313.9 144.4 313.2Q145.3 312.5 146.3 312.3Q147.3 312.0 148.3 312.0L148.3 312.0Q148.9 312.0 149.7 312.1Q150.6 312.3 151.3 312.7Q152.1 313.2 152.6 314.1Q153.1 315.1 153.1 316.6L153.1 316.6L153.1 325.3L151.1 325.3L151.1 323.5L151.0 323.5Q150.8 323.9 150.3 324.4Q149.9 324.9 149.1 325.2Q148.3 325.6 147.1 325.6ZM147.4 323.8L147.4 323.8Q148.6 323.8 149.5 323.3Q150.3 322.8 150.7 322.1Q151.1 321.3 151.1 320.5L151.1 320.5L151.1 318.7Q151.0 318.8 150.6 318.9Q150.1 319.1 149.6 319.2Q149.0 319.3 148.5 319.3Q148.0 319.4 147.6 319.4L147.6 319.4Q146.9 319.5 146.2 319.7Q145.5 320.0 145.1 320.4Q144.7 320.9 144.7 321.6L144.7 321.6Q144.7 322.7 145.5 323.2Q146.2 323.8 147.4 323.8ZM158.8 330.2L156.8 330.2L156.8 312.2L158.8 312.2L158.8 314.2L159 314.2Q159.2 313.9 159.6 313.4Q160.0 312.8 160.8 312.4Q161.5 312.0 162.8 312.0L162.8 312.0Q164.4 312.0 165.7 312.8Q167.0 313.6 167.7 315.2Q168.4 316.7 168.4 318.7L168.4 318.7Q168.4 320.8 167.7 322.3Q167.0 323.9 165.7 324.7Q164.5 325.5 162.8 325.5L162.8 325.5Q161.6 325.5 160.8 325.1Q160.0 324.7 159.6 324.1Q159.2 323.6 159 323.2L159 323.2L158.8 323.2L158.8 330.2ZM158.8 318.7L158.8 318.7Q158.8 320.2 159.2 321.3Q159.7 322.4 160.5 323.1Q161.3 323.7 162.5 323.7L162.5 323.7Q163.8 323.7 164.7 323.0Q165.5 322.4 165.9 321.2Q166.4 320.1 166.4 318.7L166.4 318.7Q166.4 317.3 165.9 316.2Q165.5 315.1 164.7 314.4Q163.8 313.8 162.5 313.8L162.5 313.8Q161.3 313.8 160.5 314.4Q159.6 315.0 159.2 316.1Q158.8 317.2 158.8 318.7ZM173.5 330.2L171.4 330.2L171.4 312.2L173.4 312.2L173.4 314.2L173.6 314.2Q173.8 313.9 174.2 313.4Q174.6 312.8 175.4 312.4Q176.1 312.0 177.4 312.0L177.4 312.0Q179.1 312.0 180.3 312.8Q181.6 313.6 182.3 315.2Q183 316.7 183 318.7L183 318.7Q183 320.8 182.3 322.3Q181.6 323.9 180.3 324.7Q179.1 325.5 177.4 325.5L177.4 325.5Q176.2 325.5 175.4 325.1Q174.7 324.7 174.3 324.1Q173.8 323.6 173.6 323.2L173.6 323.2L173.5 323.2L173.5 330.2ZM173.4 318.7L173.4 318.7Q173.4 320.2 173.9 321.3Q174.3 322.4 175.1 323.1Q176.0 323.7 177.2 323.7L177.2 323.7Q178.4 323.7 179.3 323.0Q180.1 322.4 180.6 321.2Q181.0 320.1 181.0 318.7L181.0 318.7Q181.0 317.3 180.6 316.2Q180.1 315.1 179.3 314.4Q178.4 313.8 177.2 313.8L177.2 313.8Q175.9 313.8 175.1 314.4Q174.3 315.0 173.8 316.1Q173.4 317.2 173.4 318.7Z "/></svg>